<svg id="en6qQAd2bYk1" xmlns="http://www.w3.org/2000/svg" xmlns:xlink="http://www.w3.org/1999/xlink" viewBox="0 0 421 486" shape-rendering="geometricPrecision" text-rendering="geometricPrecision">
<path d="M12.5,128.717L210.444,14.4338L408.388,128.717v228.566L210.444,471.566L12.5,357.283v-228.566Z" fill="#fff" stroke="#2d31fa" stroke-width="30"/>
<path d="M285.636463,118.685129v177.536687l-1.1563,11.320245-3.103869,12.138536-4.17658,9.654061-4.108111,7.120725-4.998202,6.709915-5.340544,5.751355-5.682887,4.792797-7.052257,4.792796-7.668474,4.039642-8.353159,3.354958-9.859466,2.807209-11.434242,1.780181-12.187396.410811-9.927935-.410811-9.859467-1.300902-8.353159-1.84865-7.600005-2.464866-5.819824-2.32793-6.299103-3.21802-7.120726-4.655859-6.504509-5.751356-5.340544-5.751355-4.587391-6.709915-2.670272-5.477481-2.944146-6.846851-2.190993-7.805411-1.757358-8.067874-.741743-9.870878.057057-4.621625h51.611711l.356607,7.399593.930121,6.377205l2.015329,6.278512l3.291704,5.860024l3.667244,3.746378l5.401738,3.291704l6.852119,2.082507l3.806111.533472h4.583993v0l7.176384-.533472l4.154453-.999916l3.224248-1.082591l3.070175-1.591432l2.426428-1.700272l2.713391-2.409801l3.829977-4.691534l2.868479-5.712521l2.168849-6.716437.992161-6.156733.571942-7.76588v-171.452621l51.068441.163681-51.068441-.163681" transform="translate(0 0.000001)" fill="#2d31fa" stroke="#2d31fa" stroke-width="0.972"/></svg>
